<?xml version="1.0" standalone="no"?><!DOCTYPE svg PUBLIC "-//W3C//DTD SVG 1.1//EN" "http://www.w3.org/Graphics/SVG/1.1/DTD/svg11.dtd"><svg t="1500344619142" class="icon" style="" viewBox="0 0 1024 1024" version="1.1" xmlns="http://www.w3.org/2000/svg" p-id="10120" xmlns:xlink="http://www.w3.org/1999/xlink" width="200" height="200"><defs><style type="text/css"></style></defs><path d="M666.931 450.082l-124.245-99.362c-7.221-5.639-16.428-9.042-26.429-9.042-9.963 0-19.136 3.376-26.438 9.047l-124.215 99.391c-9.615 7.772-15.713 19.565-15.713 32.782 0 9.946 3.453 19.084 9.223 26.284 13.828 17.359 41.51 20.465 58.918 6.505l56.252-45.022v261.12c0 23.177 18.842 41.984 41.95 41.984s41.95-18.842 41.95-41.984v-261.12l56.286 45.056c17.545 13.892 45.090 10.718 58.914-6.554 5.754-7.137 9.236-16.316 9.236-26.308 0-13.211-6.086-24.999-15.609-32.716z" p-id="10121"></path><path d="M235.827 753.050c-85.026 0-152.542-31.71-188.655-89.839-36.113-58.095-34.406-134.724 4.335-195.174 37.342-58.334 102.366-92.023 178.995-94.549-19.866-130.492 42.667-202.377 84.753-235.008 90.112-69.871 234.257-79.053 335.565-21.367 58.982 33.587 94.037 85.675 100.454 146.978 113.937-18.978 177.562 33.826 206.814 69.905 63.317 78.131 71.27 204.39 18.91 300.203-46.524 85.060-130.389 127.317-229.82 116.497-18.739-2.116-32.222-18.978-30.174-37.683s19.285-32.017 37.683-30.174c96.7 10.718 143.258-46.353 162.406-81.408 39.014-71.373 33.826-167.868-12.049-224.495-38.673-47.684-100.352-60.518-178.483-37.069-2.94 0.916-6.319 1.443-9.822 1.443-18.851 0-34.133-15.282-34.133-34.133 0-1.495 0.096-2.969 0.283-4.414 8.549-68.506-31.114-106.53-65.93-126.362-77.346-44.066-191.522-37.035-259.925 15.974-58.266 45.193-75.947 117.18-51.132 208.179 0.761 2.688 1.198 5.775 1.198 8.963 0 18.851-15.282 34.133-34.133 34.133-1.481 0-2.94-0.094-4.371-0.277-70.759-8.822-128.991 13.535-159.677 61.424-24.61 38.434-26.146 86.46-3.823 122.368 27.716 44.578 86.050 64.375 164.147 55.637 1.132-0.133 2.443-0.209 3.772-0.209 18.853 0 34.138 15.284 34.138 34.138 0 17.525-13.205 31.965-30.208 33.914-14.153 1.653-27.874 2.404-41.118 2.404z" p-id="10122"></path></svg>