<?xml version="1.0" standalone="no"?><!DOCTYPE svg PUBLIC "-//W3C//DTD SVG 1.1//EN" "http://www.w3.org/Graphics/SVG/1.1/DTD/svg11.dtd"><svg xmlns="http://www.w3.org/2000/svg" xmlns:xlink="http://www.w3.org/1999/xlink"><symbol class="aicon" viewBox="0 0 1254 1024" id="back" xmlns="http://www.w3.org/2000/svg"><defs><style/></defs><path d="M1251.72 893.87c-15.365 38.618 31.58 114.276-36.751 128.484-68.626 14.213-42.21-67.325-57.138-102.354-87.86-205.146-363.349-289.274-528.584-283.102-59.431 2.303-43.641 42.211-49.383 75.664-9.48 55.41 35.314 133.222-25.27 162.506-71.346 34.594-111.541-49.67-160.212-86.566C275.659 698.634 162.824 601.3 47.403 507.122c-50.246-40.909-71.926-79.675-7.323-130.345C180.34 266.954 318.44 154.54 455.972 41.417c31.724-26.127 62.733-55.124 104.081-34.306 36.033 18.23 19.092 58.858 19.811 89.58 3.015 128.771.712 135.662 191.792 177.148 317.125 69.343 464.125 310.374 480.064 620.032zm-84.126-124.606C1090.07 444.1 864.684 348.346 651.785 323.94c-134.805-15.502-136.957-8.035-148.012-146.999-4.303-53.835-13.777-65.755-60.289-25.989-98.343 84.127-199.98 164.665-302.055 244.34-44.93 35.025-36.464 58.857 3.302 91.02 88.006 71.2 171.557 147.86 260.418 218.063 23.689 18.659 47.09 59.719 80.539 44.794 34.601-15.368 19.667-59.586 16.796-89.014-8.617-87.136 30.58-109.68 109.967-99.054 180.737 24.264 363.493 40.197 499.874 184.622 9.617 10.192 27.847 12.198 55.269 23.542zm0 0"/></symbol><symbol class="bicon" viewBox="0 0 1024 1024" id="bkphone" xmlns="http://www.w3.org/2000/svg"><defs><style/></defs><path d="M782.486 25.306H254.74c-25.002 0-45.28 20.368-45.28 45.48V953.77c0 25.112 20.278 45.482 45.28 45.482h527.746c25.003 0 45.247-20.37 45.247-45.482V70.786c0-25.112-20.244-45.48-45.247-45.48zm-282.818 42.48h32.32a12.442 12.442 0 0 1 12.466 12.43 12.445 12.445 0 0 1-12.466 12.429h-32.32a12.438 12.438 0 0 1-12.466-12.428 12.442 12.442 0 0 1 12.466-12.432zm18.93 909.479c-28.416 0-51.429-20.542-51.429-45.906 0-25.361 23.013-45.91 51.429-45.91 28.413 0 51.429 20.549 51.429 45.91-.004 25.364-23.016 45.906-51.429 45.906zM767.71 835.707c0 14.902-12.107 26.993-27.023 26.993h-441.19c-14.955 0-27.065-12.09-27.065-26.993v-699.58c0-14.902 12.11-26.996 27.064-26.996h441.19c14.917 0 27.024 12.094 27.024 26.996v699.58z"/></symbol><symbol class="cicon" viewBox="0 0 1024 1024" id="bvercode" xmlns="http://www.w3.org/2000/svg"><defs><style/></defs><path d="M891.396 4.646H161.271c-20.59 0-37.283 16.693-37.283 37.283v932.073c0 20.59 16.693 37.283 37.283 37.283h730.125c20.59 0 37.283-16.693 37.283-37.283V41.928c0-20.589-16.694-37.282-37.283-37.282zm-21.75 900.978c0 17.568-14.245 31.813-31.813 31.813h-623c-17.568 0-31.813-14.244-31.813-31.813V110.307c0-17.57 14.245-31.815 31.813-31.815h623c17.567 0 31.813 14.245 31.813 31.815v795.317z"/><path d="M739.161 290.482a9.322 9.322 0 0 1-9.321 9.321H288.657a9.322 9.322 0 0 1-9.321-9.321v-31.068a9.32 9.32 0 0 1 9.321-9.32H729.84c5.147 0 9.321 4.172 9.321 9.32v31.068zm0 208.162a9.322 9.322 0 0 1-9.321 9.321H310.407a9.322 9.322 0 0 1-9.321-9.321V473.79a9.321 9.321 0 0 1 9.321-9.321H729.84a9.321 9.321 0 0 1 9.321 9.321v24.854zm0 245.448c0 5.146-4.174 9.32-9.321 9.32H310.407c-5.147 0-9.321-4.174-9.321-9.32v-34.175c0-5.146 4.173-9.32 9.321-9.32H729.84c5.147 0 9.321 4.174 9.321 9.32v34.175z"/></symbol><symbol class="dicon" viewBox="0 0 1024 1024" id="cup" xmlns="http://www.w3.org/2000/svg"><defs><style/></defs><path d="M501.418 860.444H207.785v-45.582h132.992v-164.02c-32.602-1.864-64.307-8.213-92.888-18.682-39.865-14.603-72.46-36.368-96.878-64.692-24.466-28.38-37.104-73.002-37.563-132.63-.345-44.89 6.078-99.045 19.094-160.961C154.467 169.57 187.166 79.945 188.546 76.18a22.791 22.791 0 0 1 21.397-14.94h310.712a22.792 22.792 0 0 1 21.51 15.256c1.28 3.654 31.58 90.687 51.34 193.681 27.376 142.698 20.465 242.36-20.542 296.216-.16.21-.322.416-.49.621-21.493 26.282-52.838 47.945-90.647 62.646-29.217 11.36-61.867 18.468-95.467 20.858v164.344h115.059v45.582zM226.107 106.822c-10.153 29.723-32.934 100.044-49.059 176.91-26.562 126.618-23.547 216.813 8.487 253.972 37.602 43.617 104.729 69.094 179.516 68.106 72.64-.945 138.448-26.74 171.88-67.342 17.163-22.759 26.353-59.38 27.322-108.857.827-42.126-4.394-92.877-15.515-150.846-14.403-75.076-35.058-142.725-44.515-171.943H226.107zm573.537 752.45H539.405v-45.583H645.91V651.367c-18.249.166-36.45-.935-54.247-3.292a22.791 22.791 0 0 1-10.205-41.176c27.804-19.746 45.93-57.613 53.875-112.548 6.813-47.108 6.008-105.975-2.392-174.963-14.511-119.175-47.037-227.683-47.363-228.765a22.794 22.794 0 0 1 21.816-29.384H809.02c9.837 0 18.564 6.31 21.644 15.653 1.27 3.853 31.35 95.572 51.595 200.855 12.008 62.45 17.972 116.607 17.725 160.963-.332 60.013-11.705 102.139-34.766 128.788-27.577 31.867-69.38 56.243-120.888 70.496-16.949 4.688-34.71 8.165-52.841 10.397v165.296h108.153v45.584zm-162.19-752.45c10.958 41.063 30.11 120.153 40.664 206.482 16.598 135.763 5.233 233.8-33.767 292.567 77.188-.249 149.81-25.918 186.4-68.198 16.807-19.423 40.045-77.845 6.827-250.895-14.892-77.58-35.842-149.303-45.27-179.955H637.453z"/></symbol><symbol viewBox="0 0 7.80862 7.80862" shape-rendering="geometricPrecision" text-rendering="geometricPrecision" image-rendering="optimizeQuality" fill-rule="evenodd" clip-rule="evenodd" id="earn" xmlns="http://www.w3.org/2000/svg"><defs><style>.estr0{stroke:#333;stroke-width:.150746}.efil1{fill:#fff}.efil2{fill:#333}.efil0{fill:#da251e}.efil4{fill:#d72c26;fill-rule:nonzero}.efil3{fill:#fff;fill-opacity:.101961}</style><clipPath id="eid0"><path d="M2.334 2.29h3.23v3.23h-3.23V2.29z"/></clipPath></defs><g id="e图层_x0020_1"><g id="e_176991616"><circle id="e_147375064" class="efil0 estr0" cx="3.904" cy="3.904" r="3.829"/><circle id="e_147374992" class="efil1" transform="scale(-.4201) rotate(28.635 13.56 -22.854)" r="8.203"/><circle id="e_147374920" class="efil2" transform="matrix(-.3858 .15666 -.15666 -.3858 3.904 3.904)" r="8.203"/><path id="e_147374848" class="efil3" d="M2.366 6.953C2.1 5.127 3.24 3.028 5.086 2.08c.462-.236.927-.38 1.377-.439a3.416 3.416 0 0 1-4.097 5.312z"/><g clip-path="url(#eid0)"><image id="e_139035408" transform="translate(152.334 15.973)" x="-150" y="-13.684" width="3.23" height="3.23" xmlns:xlink="http://www.w3.org/1999/xlink" xlink:href="earn_Images\earn_ImgID1.png"/></g><path id="e_147374656" class="efil4" d="M4.597 5.52V4.38h.071v1.14h.405V4.38h.174a.238.238 0 0 0 .138-.045.304.304 0 0 0 .098-.117.37.37 0 0 0 .036-.162v-.238h.045v-.26h-.045v-.554h-.446v-.173h.49v-.26H5.35L5.4 2.29h-.514l-.047.283h-.303l-.045-.283h-.51l.044.283H3.78v.259h.412v.173h-.344v.255h.344v.3h-.405v.259h.405v.302h-.344v.26h.344v1.14h.405zm-2.25-.9h.35l-.363.892h.507l.197-.503.18.503h.5l-.346-.891h.347V2.4H2.347v2.22zm3.165.9l-.054-1.012h-.337l.055 1.011h.336zm-1.415 0l.054-1.012h-.32L3.777 5.52h.32zm-.838-2.693h-.442v1.501l-.065.16V2.66h.558v1.8l-.05-.132v-1.5zm1.896.432v.3h-.082v-.3h.082zm-.082.559h.082v.204a.108.108 0 0 1-.024.07.074.074 0 0 1-.058.028v-.302zm-.476 0h.071v.302h-.071v-.302zm0-.559h.071v.3h-.071v-.3zm0-.428h.071v.173h-.071v-.173z"/></g></g></symbol><symbol class="ficon" viewBox="0 0 1024 1024" id="map" xmlns="http://www.w3.org/2000/svg"><defs><style/></defs><path d="M605.097 955.87l4.392-4.014c-1.506 1.254-3.137 2.384-4.642 3.638.125.126.125.251.25.377zM611.747 949.723l-2.258 2.007c.753-.627 1.631-1.254 2.258-2.007zM352.028 413.597c-.753 88.078 70.388 159.846 159.596 160.85 86.447.878 158.466-70.513 159.47-158.09 1.004-88.204-69.384-159.721-158.341-160.976-87.075-1.38-159.847 70.388-160.725 158.216zm255.328 1.129c0 52.822-42.408 95.481-95.23 95.607-53.074.25-96.11-42.534-96.235-95.607-.125-52.571 42.66-95.481 95.482-95.607 53.073-.125 95.983 42.534 95.983 95.607z"/><path d="M910.487 301.177a391.057 391.057 0 0 0-7.151-22.584 325.64 325.64 0 0 0-8.281-21.832c-2.886-7.151-6.023-14.178-9.41-21.204-3.263-6.9-6.776-13.676-10.414-20.451a444.767 444.767 0 0 0-11.418-19.699c-4.015-6.524-8.28-13.048-12.798-19.322-3.89-5.395-9.786-9.41-16.06-11.417-3.262-1.004-6.65-1.632-10.037-1.632-17.817 0-32.37 14.178-32.37 31.744 0 8.532 3.512 16.31 9.033 22.082 21.957 32.371 39.02 69.008 49.56 109.158 20.451 77.665 14.805 154.075-17.44 227.6-34.63 79.044-80.802 150.812-138.392 215.428C638.347 833.038 578.5 894.14 516.14 952.86c-1.38 1.38-3.01 2.51-4.767 4.14-5.772-5.394-11.418-10.664-16.939-15.934-67.376-64.24-132.494-130.738-192.217-202.254-44.04-52.823-78.669-111.667-108.028-173.523-26.474-55.583-36.888-114.553-32.747-176.158C171.228 240.2 280.26 110.214 425.678 74.456c59.974-14.805 123.46-14.053 182.933 2.886 17.189 4.893 34.002 11.166 50.187 18.569 8.03 3.764 16.06 7.779 23.839 12.045 8.657 4.768 16.687 10.665 26.976 10.665 17.942 0 32.496-14.178 32.496-31.618 0-22.71-23.463-32.371-40.777-41.28-19.824-10.162-40.401-18.694-61.605-25.595-21.33-6.9-43.287-12.045-65.495-15.433-22.584-3.387-45.42-5.018-68.254-4.642-23.463.377-46.8 2.635-69.76 6.775-6.776 1.255-13.677 2.635-20.327 4.266C241.491 51.621 110 205.696 97.955 383.234c-4.894 71.893 6.9 140.775 37.138 205.893 28.105 60.727 61.354 118.693 103.01 171.264 69.76 87.953 148.93 167.25 230.736 243.91 8.657 8.156 17.69 15.684 29.234 18.193 10.79 2.384 25.972 2.133 36.511-2.509 8.783-3.764 21.58-16.06 28.356-22.584 19.699-18.82 29.485-29.987 47.302-46.424 23.713-21.831 44.917-46.297 67.125-69.76.628-.753 1.38-1.38 2.008-2.133 20.827-21.706 41.53-43.663 61.856-65.745 65.118-70.89 116.183-151.315 153.573-239.896 37.264-88.455 42.157-179.921 15.683-272.266z"/></symbol><symbol class="gicon" viewBox="0 0 1024 1024" id="phone" xmlns="http://www.w3.org/2000/svg"><defs><style/></defs><path d="M1023.94 808.666c0 13.086-2.436 30.165-7.27 51.258-4.832 21.073-9.952 37.742-15.277 49.825-10.157 24.267-39.749 49.927-88.714 77.082-45.606 24.738-90.68 37.108-135.282 37.108-13.086 0-25.804-.84-38.152-2.58a311.482 311.482 0 0 1-41.838-9.052 590.546 590.546 0 0 1-34.569-10.567c-7.515-2.622-20.95-7.639-40.322-14.93a1804.63 1804.63 0 0 0-35.633-13.085c-47.511-16.957-89.964-37.067-127.276-60.351-62.071-38.275-126.19-90.537-192.357-156.683-66.187-66.167-118.429-130.286-156.724-192.378-23.264-37.312-43.395-79.744-60.351-127.255a1670.249 1670.249 0 0 0-13.086-35.633 2594.046 2594.046 0 0 1-14.908-40.364c-2.663-7.515-6.185-19.025-10.547-34.547a314.452 314.452 0 0 1-9.093-41.818 283.18 283.18 0 0 1-2.539-38.173c0-44.582 12.37-89.676 37.087-135.262 27.134-48.944 52.835-78.515 77.082-88.714 12.103-5.324 28.711-10.424 49.805-15.277C185.089 2.437 202.189 0 215.275 0c6.799 0 11.878.737 15.257 2.191 8.744 2.908 21.584 21.34 38.561 55.272 5.325 9.216 12.595 22.302 21.81 39.258a3462.887 3462.887 0 0 0 25.455 46.18 1425.118 1425.118 0 0 0 22.547 38.91c1.454 1.945 5.693 8.007 12.738 18.185 7.024 10.198 12.246 18.8 15.646 25.823 3.4 7.045 5.099 13.946 5.099 20.725 0 9.727-6.901 21.83-20.724 36.37s-28.855 27.872-45.095 39.995a441.44 441.44 0 0 0-45.094 38.541c-13.803 13.598-20.725 24.739-20.725 33.442 0 4.362 1.209 9.83 3.646 16.383 2.416 6.533 4.464 11.53 6.184 14.909 1.7 3.4 5.1 9.215 10.178 17.448 5.1 8.253 7.864 12.84 8.376 13.802 36.82 66.433 79.007 123.385 126.518 170.896 47.51 47.53 104.483 89.717 170.916 126.518.962.532 5.55 3.276 13.802 8.375 8.233 5.12 14.049 8.499 17.448 10.178 3.4 1.7 8.397 3.748 14.93 6.185 6.553 2.416 12 3.645 16.362 3.645 8.765 0 19.885-6.922 33.483-20.724 13.516-13.824 26.397-28.855 38.52-45.095s25.435-31.25 39.995-45.073c14.56-13.803 26.643-20.725 36.35-20.725 6.8 0 13.72 1.7 20.766 5.058 7.003 3.44 15.645 8.663 25.803 15.667 10.157 7.024 16.24 11.304 18.165 12.717a1586.464 1586.464 0 0 0 38.91 22.567c13.802 7.762 29.202 16.24 46.2 25.456 16.956 9.174 30.042 16.465 39.278 21.769 33.912 16.976 52.364 29.837 55.23 38.54 1.373 3.42 2.13 8.479 2.13 15.278z"/></symbol><symbol class="hicon" viewBox="0 0 1024 1024" id="upload" xmlns="http://www.w3.org/2000/svg"><defs><style/></defs><path d="M666.931 450.082L542.686 350.72c-7.221-5.639-16.428-9.042-26.429-9.042a42.951 42.951 0 0 0-26.438 9.047l-124.215 99.391c-9.615 7.772-15.713 19.565-15.713 32.782a41.885 41.885 0 0 0 9.223 26.284c13.828 17.359 41.51 20.465 58.918 6.505l56.252-45.022v261.12c0 23.177 18.842 41.984 41.95 41.984s41.95-18.842 41.95-41.984v-261.12l56.286 45.056c17.545 13.892 45.09 10.718 58.914-6.554 5.754-7.137 9.236-16.316 9.236-26.308 0-13.211-6.086-24.999-15.609-32.716z"/><path d="M235.827 753.05c-85.026 0-152.542-31.71-188.655-89.839-36.113-58.095-34.406-134.724 4.335-195.174 37.342-58.334 102.366-92.023 178.995-94.549-19.866-130.492 42.667-202.377 84.753-235.008 90.112-69.871 234.257-79.053 335.565-21.367 58.982 33.587 94.037 85.675 100.454 146.978 113.937-18.978 177.562 33.826 206.814 69.905 63.317 78.131 71.27 204.39 18.91 300.203-46.524 85.06-130.389 127.317-229.82 116.497-18.739-2.116-32.222-18.978-30.174-37.683s19.285-32.017 37.683-30.174c96.7 10.718 143.258-46.353 162.406-81.408 39.014-71.373 33.826-167.868-12.049-224.495-38.673-47.684-100.352-60.518-178.483-37.069-2.94.916-6.319 1.443-9.822 1.443-18.851 0-34.133-15.282-34.133-34.133 0-1.495.096-2.969.283-4.414 8.549-68.506-31.114-106.53-65.93-126.362-77.346-44.066-191.522-37.035-259.925 15.974-58.266 45.193-75.947 117.18-51.132 208.179.761 2.688 1.198 5.775 1.198 8.963 0 18.851-15.282 34.133-34.133 34.133-1.481 0-2.94-.094-4.371-.277-70.759-8.822-128.991 13.535-159.677 61.424-24.61 38.434-26.146 86.46-3.823 122.368 27.716 44.578 86.05 64.375 164.147 55.637a33.087 33.087 0 0 1 3.772-.209c18.853 0 34.138 15.284 34.138 34.138 0 17.525-13.205 31.965-30.208 33.914a354.248 354.248 0 0 1-41.118 2.404z"/></symbol><symbol class="iicon" viewBox="0 0 1024 1024" id="user" xmlns="http://www.w3.org/2000/svg"><defs><style/></defs><path d="M940.544 1024H83.456c-26.296 0-47.616-21.33-47.616-47.626 0-189.107 110.459-351.975 270.11-428.877C362.686 592.251 512 690.607 512 690.607s149.31-98.356 206.05-143.11c159.651 76.902 270.11 239.77 270.11 428.877 0 26.296-21.32 47.626-47.616 47.626zM512 571.53c-157.788 0-285.696-127.943-285.696-285.762C226.304 127.938 354.212 0 512 0s285.696 127.939 285.696 285.768c0 157.819-127.913 285.762-285.696 285.762z"/></symbol><symbol class="jicon" viewBox="0 0 1024 1024" id="vercode" xmlns="http://www.w3.org/2000/svg"><defs><style/></defs><path d="M512.064 1.344c111.424 85.952 231.424 145.728 437.312 145.728v377.6c0 180.096-231.424 497.984-437.312 497.984S74.624 704.704 74.624 524.672v-377.6c205.76 0 325.888-59.84 437.44-145.728zm0 84.864c-93.056 71.68-193.152 121.536-364.736 121.536V522.56c0 150.144 193.088 415.232 364.672 415.232 171.648 0 364.608-265.088 364.608-415.232V207.744c-171.584 0-271.616-49.856-364.544-121.536z"/><path d="M769.024 361.344l-28.224-28.16c-7.04-7.04-20.16-5.376-29.312 3.776L450.176 598.464l-138.432-131.84c-9.472-9.024-22.72-10.496-29.632-3.264l-27.456 28.928c-6.848 7.232-4.736 20.416 4.736 29.44l173.632 165.376c3.52 3.328 7.552 5.632 11.584 6.848 7.296 3.008 17.216.448 24.576-6.912l296.192-296.384c9.024-9.152 10.688-22.272 3.648-29.312z"/></symbol></svg>