<?xml version="1.0" standalone="no"?><!DOCTYPE svg PUBLIC "-//W3C//DTD SVG 1.1//EN" "http://www.w3.org/Graphics/SVG/1.1/DTD/svg11.dtd"><svg xmlns="http://www.w3.org/2000/svg" xmlns:xlink="http://www.w3.org/1999/xlink"><symbol class="aicon" viewBox="0 0 1024 1024" id="close" xmlns="http://www.w3.org/2000/svg"><defs><style/></defs><path d="M511.999 1024C229.717 1024 0 794.283 0 512S229.717 0 511.999 0s512 229.717 512 512c.074 282.283-229.644 512-512 512zm0-984.648C251.374 39.352 39.351 251.375 39.351 512c0 260.552 212.024 472.65 472.649 472.65S984.649 772.625 984.649 512 772.624 39.352 511.999 39.352z"/><path d="M347.08 709.949l-32.964-32.963 362.918-362.918 32.964 32.963L347.08 709.949z"/><path d="M709.935 676.957l-32.964 32.964-362.918-362.918 32.964-32.964 362.918 362.918z"/></symbol><symbol class="bicon" viewBox="0 0 1024 1024" id="upload" xmlns="http://www.w3.org/2000/svg"><defs><style/></defs><path d="M666.931 450.082L542.686 350.72c-7.221-5.639-16.428-9.042-26.429-9.042a42.951 42.951 0 0 0-26.438 9.047l-124.215 99.391c-9.615 7.772-15.713 19.565-15.713 32.782a41.885 41.885 0 0 0 9.223 26.284c13.828 17.359 41.51 20.465 58.918 6.505l56.252-45.022v261.12c0 23.177 18.842 41.984 41.95 41.984s41.95-18.842 41.95-41.984v-261.12l56.286 45.056c17.545 13.892 45.09 10.718 58.914-6.554 5.754-7.137 9.236-16.316 9.236-26.308 0-13.211-6.086-24.999-15.609-32.716z"/><path d="M235.827 753.05c-85.026 0-152.542-31.71-188.655-89.839-36.113-58.095-34.406-134.724 4.335-195.174 37.342-58.334 102.366-92.023 178.995-94.549-19.866-130.492 42.667-202.377 84.753-235.008 90.112-69.871 234.257-79.053 335.565-21.367 58.982 33.587 94.037 85.675 100.454 146.978 113.937-18.978 177.562 33.826 206.814 69.905 63.317 78.131 71.27 204.39 18.91 300.203-46.524 85.06-130.389 127.317-229.82 116.497-18.739-2.116-32.222-18.978-30.174-37.683s19.285-32.017 37.683-30.174c96.7 10.718 143.258-46.353 162.406-81.408 39.014-71.373 33.826-167.868-12.049-224.495-38.673-47.684-100.352-60.518-178.483-37.069-2.94.916-6.319 1.443-9.822 1.443-18.851 0-34.133-15.282-34.133-34.133 0-1.495.096-2.969.283-4.414 8.549-68.506-31.114-106.53-65.93-126.362-77.346-44.066-191.522-37.035-259.925 15.974-58.266 45.193-75.947 117.18-51.132 208.179.761 2.688 1.198 5.775 1.198 8.963 0 18.851-15.282 34.133-34.133 34.133-1.481 0-2.94-.094-4.371-.277-70.759-8.822-128.991 13.535-159.677 61.424-24.61 38.434-26.146 86.46-3.823 122.368 27.716 44.578 86.05 64.375 164.147 55.637a33.087 33.087 0 0 1 3.772-.209c18.853 0 34.138 15.284 34.138 34.138 0 17.525-13.205 31.965-30.208 33.914a354.248 354.248 0 0 1-41.118 2.404z"/></symbol></svg>