<?xml version="1.0" standalone="no"?><!DOCTYPE svg PUBLIC "-//W3C//DTD SVG 1.1//EN" "http://www.w3.org/Graphics/SVG/1.1/DTD/svg11.dtd"><svg t="1504511379128" class="icon" style="" viewBox="0 0 1024 1024" version="1.1" xmlns="http://www.w3.org/2000/svg" p-id="3792" xmlns:xlink="http://www.w3.org/1999/xlink" width="200" height="200"><defs><style type="text/css"></style></defs><path d="M853.418547 718.293095c-84.026584 0-152.18216 68.410592-152.18216 152.8222 0 84.472862 68.091822 152.885955 152.18216 152.885955s152.245914-68.346838 152.245914-152.885955c0-84.412858-68.21933-152.822201-152.245914-152.8222m100.473878 112.887165s-109.49695 108.090611-110.073237 108.666898c-12.479542 12.349534-19.007457 10.366908-24.509056 4.734051l-65.53416-65.721672c-5.502849-5.569104-5.182829-14.913447 0.768799-20.862574 5.887874-6.017882 15.230967-6.337902 20.80007-0.705045l53.5634 53.758412 103.737835-101.691455c6.016632-5.886624 15.614741-5.759116 21.502615 0.256267 5.886624 6.079136 5.759116 15.742249-0.256266 21.565118M348.298984 103.545323h233.264807c24.57531 0 45.309126-23.166471 45.309126-51.837041C626.874167 23.102716 606.202855 0 580.218705 0H348.298984c-25.854141 0-46.525453 23.102716-46.525453 51.708282 0 28.606816 20.735066 51.83704 46.525453 51.837041m487.5847 567.198504c27.135472 0 52.92586 5.566603 76.347346 15.807253V174.324816c0-70.26696-37.692393-118.903798-116.664905-118.903798h-105.144174c1.023815 5.631607 1.663856 11.390723 1.663855 17.214843 0.063754 43.516512-31.423245 86.33048-68.795617 86.33048H300.365941c-39.357498 0-70.844497-42.813968-70.844497-86.33048 0.065004-5.760366 0.705045-11.583235 1.72886-17.214843H124.824798C39.325621 55.421018 18.334289 104.057855 18.334289 174.324816v695.445394c0 75.451039 30.078159 117.689971 112.95217 117.689971h556.831595c-27.839267-33.470875-44.606581-76.667367-44.606581-123.704103 0-106.618018 86.075464-193.012252 192.372211-193.012251M242.769785 319.532783h455.778931c16.831068 0 31.03822 15.742249 32.319552 33.917153 0 16.959827-17.663621 35.13473-34.49469 35.13473H239.312066c-16.894822 0-27.581751-18.174904-27.581751-35.13473 0.00125-16.958576 14.208402-33.917153 31.03947-33.917153m205.234278 458.91538H239.312066c-16.894822 0-27.581751-18.174904-27.581751-35.13348s14.207152-33.854649 31.03822-33.854649h207.410666c16.894822 0 31.101974 15.615991 32.382055 33.854649 0 16.958576-17.726125 35.13348-34.557193 35.13348m-210.610869-191.924683c-16.831068 0-33.662137-20.733816-33.662137-37.694892 0-16.893572 14.207152-31.290736 31.103224-31.290736H690.614463c16.829818 0 31.03697 13.118333 32.380805 31.290736 0 16.961077-11.646989 37.694893-28.476807 37.694892H237.393194m0 0z" p-id="3793" fill="#ffffff"></path></svg>