<?xml version="1.0" standalone="no"?><!DOCTYPE svg PUBLIC "-//W3C//DTD SVG 1.1//EN" "http://www.w3.org/Graphics/SVG/1.1/DTD/svg11.dtd"><svg t="1504512731741" class="icon" style="" viewBox="0 0 1024 1024" version="1.1" xmlns="http://www.w3.org/2000/svg" p-id="4452" xmlns:xlink="http://www.w3.org/1999/xlink" width="200" height="200"><defs><style type="text/css"></style></defs><path d="M497.932098 64.75277c37.990243-0.610914 64.273862 5.40408 86.98819 19.694551 7.724938 6.077416 15.46318 12.154831 23.201421 18.234293 13.017478-2.870374 24.847921-8.361435 39.86187-10.945283 60.653405-10.42135 113.546056 47.749514 100.767008 110.138446-9.94756 48.536436-34.995025 92.741217-69.590961 116.716258 0.236384 0.487094 0.474814 0.974188 0.723477 1.460258 31.376615 9.822716 59.656705 32.973996 84.093257 51.057863 85.328387 63.11241 141.764748 153.12754 168.897711 274.985912 6.203282 27.855418 7.251148 57.508785 7.251148 91.181699 0.01228 111.49842-33.523511 189.45184-117.440759 215.909421-25.348318 7.987928-61.85272 5.841032-94.962815 5.841032-55.326073 0-110.676705 0-166.001755 0-77.553307 0-155.132196 0-232.69676 0-79.113849 0-124.853589 3.518127-171.081447-30.652114-60.541865-44.754297-88.547709-159.574369-66.682725-269.15102 21.99085-110.22645 70.190619-207.454866 142.800333-266.236644 21.766746-17.610076 43.582611-35.531238 68.142983-50.333362 14.502295-7.537673 29.005614-15.064091 43.494607-22.601764-7.487531-8.024767-14.97711-16.050558-22.477944-24.074302-18.757203-23.962761-33.646308-51.631938-42.033325-86.077447-14.7264-60.404742 15.575744-99.580996 59.431577-113.059985 9.784854-2.995217 24.336268-7.30129 38.428218-5.104251 15.074324 2.358721 26.745131 8.723685 39.874149 10.209526 13.104459-14.252609 33.059953-25.672706 53.640688-32.086789C481.00866 68.147076 489.469356 66.450435 497.932098 64.75277zM481.981824 644.646066c0 14.32731 0 28.67918 0 43.032072-34.133402-0.623193-101.464903-11.631922-97.134271 26.983561 3.194762 28.578896 65.696258 19.518542 97.134271 18.97005-0.824785 30.002314 0.324388 48.098461 24.648376 53.240575 5.167696 1.098008 14.46648 1.422396 18.845207-0.724501 15.901155-7.78736 17.33583-27.780717 16.673751-52.516074 33.322943 0.523933 94.015234 10.083659 99.307773-18.97005 7.275707-39.913035-65.884546-28.92989-99.307773-28.456099 0.237407-13.853519 0.474814-27.707039 0.724501-41.559535 33.360805 0.623193 107.693768 9.934257 97.858772-31.375591-6.776334-28.480658-63.86147-20.316721-98.583273-19.693528 0-8.012488 0-16.050558 0-24.062022 28.505217-31.376615 57.023738-62.752206 85.541235-94.102215 7.637957-9.928117 11.719926-24.230867 2.895957-35.736922-7.725962-10.072403-24.399713-11.781324-35.518958-3.657296-27.631314 20.192901-57.960063 56.990992-81.921801 82.426291-0.474814-0.249687-0.960885-0.473791-1.446955-0.724501-6.515391-7.28901-13.042037-14.601556-19.570731-21.890566-12.45466-15.601326-38.164205-49.41648-53.639664-59.812247-11.157107-7.476275-29.904077-13.616112-39.151695 0-8.723685 12.854772-2.596128 32.598442 5.079692 43.038212 22.751167 30.950919 55.762001 59.057047 79.013565 90.458221-0.488117 8.509814-0.960885 17.022699-1.447978 25.53456-34.483372-0.674359-105.85898-11.783371-96.410793 31.350009C391.562489 653.756561 449.295378 645.2447 481.981824 644.646066z" p-id="4453" fill="#ffffff"></path></svg>