<?xml version="1.0" encoding="UTF-8"?>
<!DOCTYPE svg PUBLIC "-//W3C//DTD SVG 1.1//EN" "http://www.w3.org/Graphics/SVG/1.1/DTD/svg11.dtd">
<!-- Creator: CorelDRAW -->
<svg xmlns="http://www.w3.org/2000/svg" xml:space="preserve" width="300px" height="300px" style="shape-rendering:geometricPrecision; text-rendering:geometricPrecision; image-rendering:optimizeQuality; fill-rule:evenodd; clip-rule:evenodd"
viewBox="0 0 7.80862 7.80862"
 xmlns:xlink="http://www.w3.org/1999/xlink">
 <defs>
  <style type="text/css">
   <![CDATA[
    .str0 {stroke:#333333;stroke-width:0.150746}
    .fil1 {fill:white}
    .fil2 {fill:#333333}
    .fil0 {fill:#DA251E}
    .fil4 {fill:#D72C26;fill-rule:nonzero}
    .fil3 {fill:white;fill-opacity:0.101961}
   ]]>
  </style>
     <clipPath id="id0">
      <path d="M2.33366 2.2894l3.22987 0 0 3.22987 -3.22987 0 0 -3.22987z"/>
     </clipPath>
 </defs>
 <g id="图层_x0020_1">
  <metadata id="CorelCorpID_0Corel-Layer"/>
  <g id="_176991616">
   <circle id="_147375064" class="fil0 str0" cx="3.90431" cy="3.90431" r="3.82894"/>
   <circle id="_147374992" class="fil1" transform="matrix(-0.368721 -0.201328 0.201328 -0.368721 3.90431 3.90431)" r="8.20273"/>
   <circle id="_147374920" class="fil2" transform="matrix(-0.385792 0.15666 -0.15666 -0.385792 3.90431 3.90431)" r="8.20273"/>
   <path id="_147374848" class="fil3" d="M2.36562 6.95335c-0.265071,-1.82625 0.874023,-3.92529 2.72096,-4.87294 0.461161,-0.23667 0.926361,-0.380723 1.37643,-0.439453 0.249393,0.281894 0.456216,0.609856 0.605876,0.978338 0.70965,1.74738 -0.132053,3.74006 -1.87956,4.44959 -0.950722,0.386089 -1.97386,0.312827 -2.8237,-0.115531z"/>
   <g>
    <g style="clip-path:url(#id0)">
     <image id="_139035408" transform="matrix(1 0 0 1 152.334 15.9735)" x="-150" y="-13.6841" width="3.22987" height="3.22987" xlink:href="earn_Images\earn_ImgID1.png"/>
    </g>
   </g>
   <path id="_147374656" class="fil4" d="M4.59695 5.51928l0 -1.14018 0.0714534 0 0 1.14018 0.405023 0 0 -1.14018 0.173599 0c0.0516153,-0.000542684 0.0975625,-0.0153157 0.138384,-0.0441986 0.0408219,-0.0289431 0.0737447,-0.0680767 0.0975625,-0.116858 0.0238178,-0.0482386 0.0357568,-0.102688 0.0362995,-0.162262l0 -0.238238 0.0442589 0 0 -0.258679 -0.0442589 0 0 -0.554744 -0.445845 0 0 -0.173599 0.490104 0 0 -0.258619 -0.21442 0 0.0510726 -0.282497 -0.513922 0 -0.0476959 0.282497 -0.302878 0 -0.0442589 -0.282497 -0.510545 0 0.0442589 0.282497 -0.245052 0 0 0.258619 0.411837 0 0 0.173599 -0.34376 0 0 0.255242 0.34376 0 0 0.299501 -0.405023 0 0 0.258679 0.405023 0 0 0.302938 -0.34376 0 0 0.258619 0.34376 0 0 1.14018 0.405023 0zm-2.24973 -0.898504l0.350574 0 -0.364141 0.89169 0.507108 0 0.197356 -0.503731 0.180412 0.503731 0.500294 0 -0.347137 -0.89169 0.347137 0 0 -2.21909 -1.3716 0 0 2.21909zm3.16523 0.898504l-0.0544493 -1.01084 -0.336946 0 0.0544493 1.01084 0.336946 0zm-1.4158 0l0.0544493 -1.01084 -0.319942 0 -0.0544493 1.01084 0.319942 0zm-0.837301 -2.69213l-0.442408 0 0 1.50094 -0.0647 0.159971 0 -1.8277 0.558181 0 0 1.80044 -0.0510726 -0.132716 0 -1.50094zm1.89578 0.432218l0 0.299501 -0.0817041 0 0 -0.299501 0.0817041 0zm-0.0817041 0.558181l0.0817041 0 0 0.20423c-0.000602982,0.0277975 -0.00850205,0.0510123 -0.0244208,0.069765 -0.0153157,0.0186924 -0.0346112,0.0283402 -0.0572833,0.0289431l0 -0.302938zm-0.476476 0l0.0714534 0 0 0.302938 -0.0714534 0 0 -0.302938zm0 -0.558181l0.0714534 0 0 0.299501 -0.0714534 0 0 -0.299501zm0 -0.428841l0.0714534 0 0 0.173599 -0.0714534 0 0 -0.173599z"/>
  </g>
 </g>
</svg>
